<svg width="19" height="25" viewBox="0 0 19 25" fill="none" xmlns="http://www.w3.org/2000/svg">
<path d="M8.41152 24.4958C1.31689 14.2107 0 13.1552 0 9.37524C0 4.19756 4.19731 0.000244141 9.375 0.000244141C14.5527 0.000244141 18.75 4.19756 18.75 9.37524C18.75 13.1552 17.4331 14.2107 10.3385 24.4958C9.8729 25.1684 8.87705 25.1684 8.41152 24.4958ZM9.375 13.2815C11.5324 13.2815 13.2812 11.5326 13.2812 9.37524C13.2812 7.21787 11.5324 5.46899 9.375 5.46899C7.21763 5.46899 5.46875 7.21787 5.46875 9.37524C5.46875 11.5326 7.21763 13.2815 9.375 13.2815Z" fill="#16697A"/>
</svg>
