<svg width="45" height="42" viewBox="0 0 45 42" fill="none" xmlns="http://www.w3.org/2000/svg">
<path d="M1.60714 7.71429H43.3929C44.2805 7.71429 45 6.94682 45 6V1.71429C45 0.767464 44.2805 0 43.3929 0H1.60714C0.719498 0 0 0.767464 0 1.71429V6C0 6.94682 0.719498 7.71429 1.60714 7.71429ZM1.60714 24.8571H43.3929C44.2805 24.8571 45 24.0897 45 23.1429V18.8571C45 17.9103 44.2805 17.1429 43.3929 17.1429H1.60714C0.719498 17.1429 0 17.9103 0 18.8571V23.1429C0 24.0897 0.719498 24.8571 1.60714 24.8571ZM1.60714 42H43.3929C44.2805 42 45 41.2325 45 40.2857V36C45 35.0532 44.2805 34.2857 43.3929 34.2857H1.60714C0.719498 34.2857 0 35.0532 0 36V40.2857C0 41.2325 0.719498 42 1.60714 42Z" fill="#C1E0E6"/>
</svg>
