<svg width="153" height="26" viewBox="0 0 153 26" fill="none" xmlns="http://www.w3.org/2000/svg">
<path d="M19.5728 17.7089H20.4165L19.9067 25.1268H0.166504V24.3182H0.658691C1.84229 24.3182 2.604 24.16 2.94385 23.8436C3.29541 23.5272 3.51807 23.1288 3.61182 22.6483C3.70557 22.1561 3.75244 20.9139 3.75244 18.9218V7.2323C3.75244 5.41589 3.69971 4.22058 3.59424 3.64636C3.50049 3.07214 3.27197 2.67371 2.90869 2.45105C2.55713 2.21667 1.80713 2.09949 0.658691 2.09949V1.29089H17.6919L18.2544 7.2323H17.4282C17.0532 5.56824 16.5903 4.3905 16.0396 3.6991C15.5005 2.99597 14.856 2.55652 14.106 2.38074C13.356 2.19324 12.1489 2.09949 10.4849 2.09949H7.18018V12.1014H9.71143C10.8716 12.1014 11.6802 12.0018 12.1372 11.8026C12.606 11.6034 12.9106 11.3046 13.0513 10.9061C13.2036 10.496 13.2798 9.70496 13.2798 8.53308H14.106V16.6893H13.2798C13.2798 15.3651 13.1685 14.4803 12.9458 14.035C12.7231 13.578 12.395 13.285 11.9614 13.1561C11.5396 13.0155 10.8188 12.9452 9.79932 12.9452H7.18018V18.5878C7.18018 21.412 7.36182 23.076 7.7251 23.58C8.08838 24.0721 9.06689 24.3182 10.6606 24.3182H12.436C13.6899 24.3182 14.7212 24.16 15.5298 23.8436C16.3384 23.5155 17.106 22.8534 17.8325 21.8573C18.5708 20.8495 19.1509 19.4667 19.5728 17.7089ZM22.9829 25.5839V20.8553H23.6685C24.4653 23.5858 25.8892 24.951 27.9399 24.951C28.8306 24.951 29.4927 24.6815 29.9263 24.1425C30.3716 23.6034 30.5942 23.0116 30.5942 22.3671C30.5942 21.6171 30.3599 21.0018 29.8911 20.5214C29.4106 20.0409 28.479 19.4608 27.0962 18.7811C25.6431 18.0663 24.6001 17.3632 23.9673 16.6718C23.3345 15.9921 23.0181 15.1542 23.0181 14.1581C23.0181 13.2089 23.3579 12.3065 24.0376 11.451C24.7173 10.5839 25.6724 10.1503 26.9028 10.1503C28.1567 10.1503 29.1938 10.66 30.0142 11.6796C30.1899 11.5038 30.4185 11.076 30.6997 10.3964H31.3501V14.8436H30.6997C30.4653 13.7772 30.0083 12.8632 29.3286 12.1014C28.6606 11.328 27.8696 10.9413 26.9556 10.9413C26.2524 10.9413 25.6841 11.1581 25.2505 11.5917C24.8169 12.0253 24.6001 12.5292 24.6001 13.1034C24.6001 13.7362 24.8403 14.2811 25.3208 14.7382C25.7896 15.2069 26.686 15.7401 28.0103 16.3378C30.0024 17.2401 31.2212 18.119 31.6665 18.9745C32.1118 19.8417 32.3345 20.6737 32.3345 21.4706C32.3345 22.7245 31.9185 23.744 31.0864 24.5292C30.2661 25.3143 29.229 25.7069 27.9751 25.7069C26.6509 25.7069 25.4731 25.162 24.4419 24.0721C24.1255 24.4237 23.8677 24.9276 23.6685 25.5839H22.9829ZM38.5923 10.1503H38.7681C39.1079 10.9354 39.2778 11.9432 39.2778 13.1737C40.063 12.1659 40.9067 11.41 41.8091 10.9061C42.7231 10.4022 43.7017 10.1503 44.7446 10.1503C45.9282 10.1503 46.8892 10.4198 47.6274 10.9589C48.3657 11.4979 48.8813 12.3065 49.1743 13.3846C50.0649 12.3065 50.979 11.4979 51.9165 10.9589C52.854 10.4198 53.8091 10.1503 54.7817 10.1503C55.895 10.1503 56.8384 10.4081 57.6118 10.9237C58.3853 11.4393 58.854 12.0253 59.0181 12.6815C59.1821 13.3378 59.2642 14.3983 59.2642 15.8632V20.1874C59.2642 21.8632 59.2935 22.8827 59.3521 23.246C59.4224 23.6093 59.6099 23.8788 59.9146 24.0546C60.231 24.2303 60.811 24.3182 61.6548 24.3182V25.1268H54.4653V24.3182C55.2271 24.3182 55.7603 24.2362 56.0649 24.0721C56.3813 23.8964 56.5747 23.6385 56.645 23.2987C56.7153 22.9471 56.7505 21.91 56.7505 20.1874V15.3885C56.7505 14.4159 56.6919 13.6835 56.5747 13.1913C56.4692 12.6991 56.1821 12.2772 55.7134 11.9257C55.2446 11.5741 54.6353 11.3983 53.8853 11.3983C53.1235 11.3983 52.356 11.6561 51.5825 12.1718C50.8208 12.6874 50.0532 13.4667 49.2798 14.5096V20.1874C49.2798 21.7225 49.2974 22.6893 49.3325 23.0878C49.3794 23.4745 49.5435 23.7792 49.8247 24.0018C50.1177 24.2128 50.6333 24.3182 51.3716 24.3182V25.1268H44.4106V24.3182C45.1958 24.3182 45.7407 24.2362 46.0454 24.0721C46.3618 23.9081 46.5552 23.6561 46.6255 23.3163C46.7075 22.9764 46.7485 21.9335 46.7485 20.1874V16.1971C46.7485 14.9315 46.6958 14.0175 46.5903 13.455C46.4966 12.8807 46.1978 12.3944 45.6938 11.996C45.1899 11.5858 44.563 11.3807 43.813 11.3807C43.0864 11.3807 42.3423 11.6151 41.5806 12.0839C40.8306 12.5526 40.063 13.2557 39.2778 14.1932V20.1874C39.2778 21.7694 39.3013 22.7538 39.3481 23.1405C39.395 23.5272 39.5708 23.8202 39.8755 24.0194C40.1802 24.2186 40.7251 24.3182 41.5103 24.3182V25.1268H34.4614V24.3182C35.2349 24.3182 35.7739 24.2362 36.0786 24.0721C36.395 23.8964 36.5884 23.6385 36.6587 23.2987C36.729 22.9589 36.7642 21.9218 36.7642 20.1874V15.8807C36.7642 14.2401 36.7349 13.2382 36.6763 12.8749C36.6294 12.4999 36.4478 12.2186 36.1313 12.0311C35.8267 11.8436 35.27 11.7499 34.4614 11.7499V10.9413C36.1255 10.7772 37.5024 10.5135 38.5923 10.1503ZM76.8247 15.5995H66.7876C66.7407 16.2909 66.7173 16.8065 66.7173 17.1464C66.7173 19.6776 67.1099 21.5819 67.895 22.8593C68.6919 24.1249 69.8755 24.7577 71.4458 24.7577C73.5786 24.7577 75.0903 23.8026 75.981 21.8925H76.8247C76.4497 23.0878 75.7056 24.0253 74.5923 24.705C73.479 25.3729 72.2661 25.7069 70.9536 25.7069C69.7349 25.7069 68.5806 25.4022 67.4907 24.7928C66.4126 24.1718 65.5278 23.2987 64.8364 22.1737C64.145 21.0487 63.7993 19.6835 63.7993 18.078C63.7993 15.8046 64.4673 13.9178 65.8032 12.4178C67.1392 10.9061 68.8091 10.1503 70.813 10.1503C72.6997 10.1503 74.1587 10.7245 75.1899 11.8729C76.2212 13.0214 76.7661 14.2635 76.8247 15.5995ZM73.7485 14.8964C73.7837 14.6268 73.8013 14.3866 73.8013 14.1757C73.8013 13.1444 73.4966 12.3475 72.8872 11.785C72.2896 11.2108 71.5513 10.9237 70.6724 10.9237C68.5396 10.9237 67.2681 12.2479 66.8579 14.8964H73.7485ZM84.1899 13.8241C84.5884 12.7811 85.2329 11.9081 86.1235 11.205C87.0259 10.5018 87.9048 10.1503 88.7603 10.1503C89.5337 10.1503 90.1431 10.3905 90.5884 10.871C91.0337 11.3514 91.2563 11.8436 91.2563 12.3475C91.2563 12.6874 91.1392 12.9803 90.9048 13.2264C90.6821 13.4725 90.4067 13.5956 90.0786 13.5956C89.4927 13.5956 89.0474 13.162 88.7427 12.2948C88.5317 11.7089 88.2153 11.4159 87.7935 11.4159C87.2896 11.4159 86.686 11.7616 85.9829 12.453C85.2798 13.1327 84.8286 13.8417 84.6294 14.58C84.4302 15.3182 84.3306 16.3319 84.3306 17.621V20.1874C84.3306 21.7225 84.3481 22.6893 84.3833 23.0878C84.4302 23.4862 84.6001 23.7909 84.8931 24.0018C85.186 24.2128 85.7075 24.3182 86.4575 24.3182H86.9497V25.1268H79.3032V24.3182H79.6724C80.3755 24.3182 80.8735 24.2245 81.1665 24.037C81.4712 23.8378 81.6528 23.5624 81.7114 23.2108C81.77 22.8593 81.7993 21.8514 81.7993 20.1874V16.1268C81.7993 14.58 81.7759 13.6132 81.729 13.2264C81.6938 12.828 81.5298 12.5233 81.2368 12.3124C80.9438 12.0897 80.4224 11.9784 79.6724 11.9784H79.3032V11.1874C80.4048 11.0585 81.8462 10.7128 83.6274 10.1503C83.9673 11.076 84.1548 12.3007 84.1899 13.8241ZM107.2 22.4901H107.85C107.745 24.494 106.76 25.496 104.897 25.496C104.1 25.496 103.467 25.285 102.999 24.8632C102.542 24.4413 102.243 23.8143 102.102 22.9823C100.93 23.8143 99.8579 24.4413 98.8853 24.8632C97.9243 25.285 97.063 25.496 96.3013 25.496C95.3286 25.496 94.4907 25.2147 93.7876 24.6522C93.0845 24.0897 92.7329 23.3456 92.7329 22.4198C92.7329 21.2128 93.3188 20.1581 94.4907 19.2557C95.6743 18.3534 97.3032 17.4745 99.3774 16.619L102.102 15.5116V14.8085C102.102 13.8124 102.038 13.0917 101.909 12.6464C101.78 12.201 101.446 11.8026 100.907 11.451C100.368 11.0995 99.6587 10.9237 98.7798 10.9237C97.022 10.9237 96.0435 11.5096 95.8442 12.6815C95.6567 13.8768 95.1646 14.4745 94.3677 14.4745C93.6528 14.4745 93.2954 14.1346 93.2954 13.455C93.2954 12.787 93.77 12.0721 94.7192 11.3104C95.6685 10.537 97.145 10.1503 99.1489 10.1503C100.637 10.1503 101.792 10.3846 102.612 10.8534C103.432 11.3221 103.971 11.8553 104.229 12.453C104.499 13.0507 104.633 13.9647 104.633 15.1952V21.0135C104.633 22.3729 104.704 23.246 104.844 23.6327C104.985 24.0194 105.29 24.2128 105.758 24.2128C106.532 24.2128 107.012 23.6385 107.2 22.4901ZM102.102 16.3378L100.186 17.1112C97.1626 18.3417 95.6509 19.8885 95.6509 21.7518C95.6509 22.4901 95.8442 23.0878 96.231 23.5448C96.6177 23.9901 97.1216 24.2128 97.7427 24.2128C98.2935 24.2128 98.9321 24.0311 99.6587 23.6678C100.385 23.3046 101.2 22.7596 102.102 22.0331V16.3378ZM113.739 0.956909V20.1874C113.739 21.7225 113.756 22.6893 113.792 23.0878C113.838 23.4862 114.008 23.7909 114.301 24.0018C114.594 24.2128 115.116 24.3182 115.866 24.3182H116.288V25.1268H108.588V24.3182H109.081C109.784 24.3182 110.282 24.2245 110.575 24.037C110.879 23.8378 111.061 23.5624 111.12 23.2108C111.178 22.8593 111.208 21.8514 111.208 20.1874V5.9491C111.208 4.43738 111.073 3.48816 110.803 3.10144C110.534 2.703 109.877 2.50378 108.834 2.50378V1.69519C109.549 1.69519 110.387 1.61316 111.348 1.4491C112.321 1.28503 112.989 1.12097 113.352 0.956909H113.739ZM130.385 12.2596V6.63464C130.385 5.09949 130.362 4.13269 130.315 3.73425C130.28 3.33582 130.116 3.03113 129.823 2.82019C129.53 2.60925 129.008 2.50378 128.258 2.50378H127.889V1.69519C129.307 1.66003 130.86 1.41394 132.547 0.956909H132.917V20.3104C132.917 21.9862 132.946 23.0057 133.004 23.369C133.063 23.7323 133.245 24.0018 133.549 24.1776C133.866 24.3534 134.446 24.4413 135.29 24.4413V25.2499C133.59 25.285 132.079 25.4374 130.754 25.7069C130.614 25.1561 130.543 24.2889 130.543 23.1053C129.676 23.9725 128.78 24.6229 127.854 25.0565C126.94 25.4901 125.991 25.7069 125.006 25.7069C123.143 25.7069 121.532 24.9569 120.172 23.4569C118.825 21.9569 118.151 20.1405 118.151 18.0077C118.151 15.6639 118.842 13.7714 120.225 12.33C121.608 10.8768 123.254 10.1503 125.165 10.1503C126.137 10.1503 127.057 10.326 127.924 10.6776C128.792 11.0292 129.612 11.5565 130.385 12.2596ZM130.385 13.2792C129.612 12.6112 128.833 12.1132 128.047 11.785C127.274 11.4452 126.495 11.2753 125.709 11.2753C124.385 11.2753 123.278 11.785 122.387 12.8046C121.508 13.8241 121.069 15.4882 121.069 17.7968C121.069 20.1405 121.52 21.869 122.422 22.9823C123.336 24.0956 124.461 24.6522 125.797 24.6522C126.688 24.6522 127.514 24.4413 128.276 24.0194C129.038 23.5975 129.741 22.9647 130.385 22.121V13.2792ZM151.497 22.4901H152.147C152.042 24.494 151.057 25.496 149.194 25.496C148.397 25.496 147.764 25.285 147.295 24.8632C146.838 24.4413 146.54 23.8143 146.399 22.9823C145.227 23.8143 144.155 24.4413 143.182 24.8632C142.221 25.285 141.36 25.496 140.598 25.496C139.625 25.496 138.788 25.2147 138.084 24.6522C137.381 24.0897 137.03 23.3456 137.03 22.4198C137.03 21.2128 137.616 20.1581 138.788 19.2557C139.971 18.3534 141.6 17.4745 143.674 16.619L146.399 15.5116V14.8085C146.399 13.8124 146.334 13.0917 146.206 12.6464C146.077 12.201 145.743 11.8026 145.204 11.451C144.665 11.0995 143.956 10.9237 143.077 10.9237C141.319 10.9237 140.34 11.5096 140.141 12.6815C139.954 13.8768 139.461 14.4745 138.665 14.4745C137.95 14.4745 137.592 14.1346 137.592 13.455C137.592 12.787 138.067 12.0721 139.016 11.3104C139.965 10.537 141.442 10.1503 143.446 10.1503C144.934 10.1503 146.088 10.3846 146.909 10.8534C147.729 11.3221 148.268 11.8553 148.526 12.453C148.795 13.0507 148.93 13.9647 148.93 15.1952V21.0135C148.93 22.3729 149 23.246 149.141 23.6327C149.282 24.0194 149.586 24.2128 150.055 24.2128C150.829 24.2128 151.309 23.6385 151.497 22.4901ZM146.399 16.3378L144.483 17.1112C141.459 18.3417 139.948 19.8885 139.948 21.7518C139.948 22.4901 140.141 23.0878 140.528 23.5448C140.915 23.9901 141.418 24.2128 142.04 24.2128C142.59 24.2128 143.229 24.0311 143.956 23.6678C144.682 23.3046 145.497 22.7596 146.399 22.0331V16.3378Z" fill="white"/>
</svg>
